<svg width="246" height="62" viewBox="0 0 246 62" fill="none" xmlns="http://www.w3.org/2000/svg">
<path fill-rule="evenodd" clip-rule="evenodd" d="M27.96 0H0V34.0192C0 49.4726 12.5181 62 27.96 62V0ZM61.699 27.9808C61.699 12.5274 49.1809 0 33.739 0V62H61.699V27.9808ZM52.4749 58.5653C55.3051 58.5653 57.5994 56.2693 57.5994 53.437C57.5994 50.6047 55.3051 48.3087 52.4749 48.3087C49.6447 48.3087 47.3504 50.6047 47.3504 53.437C47.3504 56.2693 49.6447 58.5653 52.4749 58.5653Z" fill="#00AEEF"/>
<path d="M233.366 34.7687C241.094 34.7687 245.964 39.7246 245.964 47.7128C245.964 55.7011 241.094 60.6396 233.366 60.6396C225.62 60.6396 220.769 55.7011 220.769 47.7128C220.769 39.7246 225.638 34.7687 233.366 34.7687ZM233.366 40.6256C230.299 40.6256 228.254 43.3808 228.254 47.7128C228.254 52.0275 230.282 54.7827 233.366 54.7827C236.45 54.7827 238.478 52.0275 238.478 47.7128C238.478 43.3808 236.433 40.6256 233.366 40.6256Z" fill="#3A3A3C"/>
<path d="M219.642 54.3668V60.2064H202.487V35.2019H209.834V54.3668H219.642Z" fill="#3A3A3C"/>
<path d="M199.715 54.3668V60.2064H182.56V35.2019H189.907V54.3668H199.715Z" fill="#3A3A3C"/>
<path d="M179.094 60.2064H171.747V35.2019H179.094V60.2064Z" fill="#3A3A3C"/>
<path d="M162.65 60.2064H155.303V41.0415H148.718V35.2019H169.234V41.0415H162.65V60.2064Z" fill="#3A3A3C"/>
<path d="M125.239 52.634H131.996C132.274 54.1415 134.024 55.0079 136.103 55.0079C138.304 55.0079 139.655 54.1069 139.655 52.8766C139.655 51.6983 138.685 51.1958 135.878 50.6932L133.365 50.2427C128.392 49.359 125.672 46.8464 125.672 42.9649C125.672 37.9398 130.004 34.7687 135.947 34.7687C142.636 34.7687 146.379 37.8705 146.413 42.809H139.655C139.604 41.2841 138.044 40.4004 136.034 40.4004C133.989 40.4004 132.95 41.3014 132.95 42.4277C132.95 43.5541 134.024 44.0912 136.519 44.5418L139.032 44.9923C144.403 45.9627 146.933 48.1633 146.933 52.2181C146.933 57.3646 142.913 60.6396 136.017 60.6396C129.536 60.6396 125.256 57.7458 125.239 52.634Z" fill="#3A3A3C"/>
<path d="M116.887 60.2064L115.587 55.2332H107.963L106.663 60.2064H99.1772L107.339 35.2019H116.557L124.719 60.2064H116.887ZM111.705 40.9722L109.297 50.0521H114.253L111.844 40.9722H111.705Z" fill="#3A3A3C"/>
<path d="M87.6886 60.6396C80.0296 60.6396 75.2817 55.9437 75.2817 47.6955C75.2817 39.4473 80.047 34.7687 87.6886 34.7687C94.2906 34.7687 99.2811 39.0661 99.2985 45.2696H92.2633C92.09 42.4277 90.2359 40.539 87.6886 40.539C84.6736 40.539 82.7675 43.2075 82.7675 47.6782C82.7675 52.2008 84.6562 54.8693 87.706 54.8693C90.2359 54.8693 92.0726 53.0152 92.2979 50.1214H99.3331C99.2985 56.3595 94.4293 60.6396 87.6886 60.6396Z" fill="#3A3A3C"/>
<path d="M213.178 27.1149C211.186 27.1149 209.574 25.5034 209.574 23.5107C209.574 21.518 211.186 19.9064 213.178 19.9064C215.171 19.9064 216.783 21.518 216.783 23.5107C216.783 25.5034 215.171 27.1149 213.178 27.1149Z" fill="#00AEEF"/>
<path d="M184.986 1.86792H195.677C203.267 1.86792 207.72 6.18261 207.72 14.1882C207.72 22.1938 203.25 26.8723 195.677 26.8723H184.986V1.86792ZM192.333 7.70748V21.0328H194.638C198.311 21.0328 200.235 18.7975 200.235 14.1882C200.235 9.97746 198.155 7.70748 194.638 7.70748H192.333Z" fill="#00AEEF"/>
<path d="M159.271 26.8723H152.34V1.86792H158.041L167.692 14.8293H167.831V1.86792H174.762V26.8723H169.131L159.409 13.703H159.271V26.8723Z" fill="#3A3A3C"/>
<path d="M148.874 26.8723H141.527V17.2033H132.724V26.8723H125.377V1.86792H132.724V11.3637H141.527V1.86792H148.874V26.8723Z" fill="#3A3A3C"/>
<path d="M109.921 1.43472C117.649 1.43472 122.518 6.39055 122.518 14.3788C122.518 22.367 117.649 27.3055 109.921 27.3055C102.175 27.3055 97.323 22.367 97.323 14.3788C97.323 6.39055 102.192 1.43472 109.921 1.43472ZM109.921 7.29161C106.853 7.29161 104.809 10.0468 104.809 14.3788C104.809 18.6935 106.836 21.4487 109.921 21.4487C113.005 21.4487 115.032 18.6935 115.032 14.3788C115.032 10.0468 112.988 7.29161 109.921 7.29161Z" fill="#3A3A3C"/>
<path d="M74.502 18.0177H81.5372C81.5372 19.9758 82.5595 21.1541 84.2403 21.1541C85.8518 21.1541 86.7182 20.1144 86.7182 18.139V1.86792H94.0654V18.191C94.0654 24.0652 90.4265 27.3055 84.3443 27.3055C78.2795 27.3055 74.502 23.8053 74.502 18.0177Z" fill="#3A3A3C"/>
</svg>
