<svg xmlns="http://www.w3.org/2000/svg" viewBox="0 0 1600 900"><defs><clipPath id="clippath"><rect width="1599.56" height="899.78" x=".72" y=".16" style="fill:none"/></clipPath></defs><rect id="Layer_1" width="1600" height="900" style="fill:#fae210"/><g id="Layer_2" style="clip-path:url(#clippath)"><polygon points="-14.57 313.99 123.7 353.08 56.19 243.22 -14.57 313.99" style="fill:#efd20a"/><circle cx="91.75" cy="417.87" r="31.04" style="fill:#efd20a"/><polygon points="341.25 152.73 362.33 172.09 383.42 191.46 356.09 200.06 328.76 208.65 335 180.69 341.25 152.73" style="fill:#efd20a"/><circle cx="89.95" cy="809.35" r="31.22" transform="rotate(-85.93 89.984 809.379)" style="fill:#efd20a"/><polygon points="322.69 806.54 332.02 838.4 341.34 870.25 309.12 862.38 276.81 854.51 299.8 830.53 322.69 806.54" style="fill:#efd20a"/><polygon points="131.57 683.2 -5.07 582.21 146.5 565.83 131.57 683.2" style="fill:#efd20a"/><polygon points="479.97 -29.62 541.78 27.03 603.59 83.77 523.59 108.93 443.59 134.09 461.78 52.28 479.97 -29.62" style="fill:#efd20a"/><circle cx="474.72" cy="932.33" r="61.35" style="fill:#efd20a"/><polygon points="1166.64 678.22 1186.91 713.34 1207.18 748.54 1166.64 748.54 1126.01 748.54 1146.37 713.34 1166.64 678.22" style="fill:#efd20a"/><circle cx="1360.29" cy="579.5" r="35.29" style="fill:#efd20a"/><circle cx="1285.64" cy="545.74" r="12.22" style="fill:#efd20a"/><circle cx="1426.53" cy="300.78" r="56.2" style="fill:#efd20a"/><polygon points="1534.4 319.15 1540.83 347.02 1547.34 374.89 1519.92 366.56 1492.5 358.24 1513.41 338.69 1534.4 319.15" style="fill:#efd20a"/><polygon points="1213.6 89.65 1242.47 114.18 1271.25 138.7 1235.68 151.46 1200.03 164.13 1206.82 126.94 1213.6 89.65" style="fill:#efd20a"/><path d="m1416.31 188.84 80.72 22.8-39.36-64.07-41.36 41.27h0Zm99.9 48.96-138.09-39 83.25-83.25 66.06 107.42-11.22 14.84h0ZM1386.08 661.48l117.28 33.21-57.19-93.21-60.09 60h0Zm136.55 59.36-174.74-49.41 101.99-101.99 83.89 136.55-11.13 14.84h0ZM170.39 371.45c.54 1.27-.09 2.71-1.36 3.26-1.27.54-2.71-.09-3.26-1.36l-6.24-15.11c-1.27-2.9-1.72-5.97-1.36-8.96.36-2.9 1.45-5.79 3.35-8.42 1.81-2.53 4.16-4.52 6.88-5.79s5.7-1.81 8.87-1.54l11.95.81c2.26.18 4.34-.18 6.24-1 1.81-.9 3.53-2.17 4.89-3.89 1.36-1.81 2.26-3.71 2.62-5.7.36-2.08.18-4.16-.54-6.33l-5.07-15.84c-.9-2.81-1.18-5.61-.72-8.42.45-2.71 1.54-5.34 3.26-7.69 1.72-2.35 3.89-4.25 6.33-5.43 2.53-1.27 5.25-1.9 8.23-1.9l21.54.09c2.08 0 3.98-.45 5.7-1.27 1.72-.81 3.26-2.08 4.52-3.71s2.17-3.44 2.53-5.34c.36-1.81.36-3.8-.18-5.88l-5.88-22.99c-.72-2.71-.72-5.43-.18-8.05.54-2.71 1.72-5.16 3.44-7.42 1.81-2.26 3.89-3.98 6.33-5.16 2.44-1.09 5.16-1.72 7.96-1.72l21.54.27c2.08 0 4.07-.45 5.88-1.27 1.72-.9 3.26-2.17 4.52-3.89s2.17-3.53 2.44-5.43l.09-.09c.27-1.9.18-3.89-.45-5.88l-5.34-18.37c-.45-1.36.36-2.71 1.63-3.08 1.36-.45 2.71.36 3.17 1.63l5.34 18.37c.81 2.81 1 5.52.54 8.23v.09c-.54 2.71-1.63 5.25-3.44 7.51-1.72 2.35-3.89 4.16-6.33 5.34-2.44 1.27-5.25 1.81-8.14 1.81l-21.45-.27c-2.08 0-4.07.45-5.79 1.27s-3.26 2.08-4.52 3.71c-1.36 1.63-2.17 3.44-2.53 5.34-.45 1.81-.36 3.8.18 5.88l5.79 22.99c.72 2.71.81 5.43.27 8.05s-1.72 5.16-3.44 7.42c-1.81 2.17-3.89 3.98-6.33 5.07-2.35 1.18-5.07 1.81-7.87 1.81l-21.54-.09c-2.17 0-4.16.45-5.97 1.36-1.72.9-3.26 2.17-4.52 3.98-1.27 1.72-2.08 3.62-2.44 5.52-.27 1.99-.09 3.98.54 6.06l5.16 15.93c.9 2.9 1.09 5.79.63 8.6-.54 2.81-1.72 5.52-3.62 7.87-1.9 2.44-4.16 4.25-6.79 5.43s-5.52 1.63-8.6 1.45l-11.85-.81c-2.35-.18-4.52.18-6.52 1.09-1.9.9-3.62 2.35-4.98 4.25-1.36 1.81-2.17 3.89-2.35 6.06-.27 2.08.09 4.25.9 6.43l6.33 15.11h0Z" style="fill:#efd20a"/><path d="M1392.96-302c134.02 122.89 268.04 245.78 401.97 368.76-174.83 55.02-349.67 110.04-524.5 165.06 39.82-178.91 79.63-357.81 119.36-536.81l3.17 2.99h0Zm196.01 186.6-196.19-180.08-115.56 519.98 508.03-159.9-196.28-179.99h0ZM1145.28 555.33c133.93 122.98 267.95 245.87 401.97 368.85-174.83 55.02-349.67 110.04-524.5 165.06 39.82-179 79.54-357.9 119.27-536.81l3.26 2.9Zm196.01 186.6-196.28-179.99-115.56 519.89 508.03-159.81-196.19-180.08h0ZM-153.12 997.21l440.43-321.89c19.73 182.25 39.36 364.42 59.09 546.67-167.68-74.02-335.37-148.14-502.96-222.25l3.44-2.53h0Zm221.44-155.65-215.01 157.19 487.22 215.19-57.19-529.48-215.01 157.1h0ZM-40.18-56.49C93.84 66.4 227.86 189.38 361.88 312.27 186.95 367.29 12.12 422.31-162.71 477.33-122.99 298.42-83.17 119.52-43.35-59.48l3.17 2.99h0Zm196.01 186.6L-40.37-49.98l-115.56 519.98 508.03-159.9-196.28-179.99Z" style="fill:#efd20a"/><circle cx="1519.65" cy="875.68" r="139.99" style="fill:#8526fe"/><circle cx="1377.22" cy="845.73" r="139.99" style="fill:#2709ff"/><circle cx="1350.97" cy="821.93" r="139.99" style="fill:#15fdfd"/><polygon points="1161.03 660.13 1181.3 695.24 1201.57 730.44 1161.03 730.44 1120.39 730.44 1140.67 695.24 1161.03 660.13" style="fill:#fff"/><path d="m1390.88,625.47l117.28,33.21-57.28-93.21-60,60h0Zm136.46,59.36l-174.65-49.41,101.99-102.08,83.89,136.65-11.22,14.84Z" style="fill:#fd3edb"/><circle cx="1354.68" cy="561.4" r="35.29" style="fill:#15fdfd"/><circle cx="1280.03" cy="527.64" r="12.22" style="fill:#fff"/><path d="m1472.78-.02c39.64,0,75.56,16.11,101.62,42.08,25.97,25.97,42.08,61.9,42.08,101.62s-16.11,75.56-42.08,101.62c-26.06,25.97-61.99,42.08-101.62,42.08s-75.65-16.11-101.62-42.08c-26.06-26.06-42.08-61.99-42.08-101.62s16.02-75.65,42.08-101.62C1397.12,16.08,1433.05-.02,1472.78-.02Zm87.42,56.2c-22.35-22.35-53.3-36.2-87.42-36.2s-65.16,13.85-87.51,36.2c-22.35,22.44-36.2,53.3-36.2,87.51s13.85,65.06,36.2,87.51c22.35,22.35,53.3,36.2,87.51,36.2s65.06-13.85,87.42-36.2c22.44-22.44,36.29-53.39,36.29-87.51s-13.85-65.06-36.29-87.51Z" style="fill:#fd4dfa"/><circle cx="1420.83" cy="282.68" r="56.2" style="fill:#8d28fe"/><polygon points="1528.79 301.05 1535.22 328.92 1541.73 356.79 1514.31 348.47 1486.89 340.14 1507.8 320.59 1528.79 301.05" style="fill:#13fffa"/><path d="m1421.01,147.57l80.72,22.8-39.46-64.07-41.27,41.27h0Zm99.9,49.05l-138.09-39.09,83.25-83.25,66.06,107.51-11.22,14.84Z" style="fill:#fd3edb"/><path d="m1160.21,364.39c-1,.9-2.53.81-3.44-.18-1-1-.9-2.53.09-3.53l11.85-11.22c2.35-2.17,4.98-3.62,7.87-4.34,2.9-.72,5.97-.72,9.05.09,3.08.81,5.79,2.35,7.96,4.43,2.08,2.08,3.71,4.71,4.62,7.78l3.44,11.4c.63,2.17,1.72,3.98,3.17,5.43l.09.09c1.36,1.45,3.17,2.44,5.25,3.08,2.17.72,4.25.81,6.24.45,1.99-.36,3.98-1.27,5.7-2.62l13.03-10.5c2.35-1.81,4.89-2.99,7.6-3.53,2.71-.63,5.52-.45,8.33.27,2.9.81,5.34,2.17,7.42,4.07,1.99,1.81,3.62,4.16,4.62,6.97l7.6,20.18c.72,1.9,1.81,3.53,3.17,4.89,1.45,1.27,3.08,2.26,5.07,2.9s3.98.81,5.88.45c1.9-.27,3.71-1,5.43-2.17l19.37-13.66c2.35-1.63,4.89-2.71,7.6-3.08,2.62-.45,5.34-.18,8.05.63,2.81.9,5.16,2.26,7.06,4.07,1.99,1.9,3.44,4.16,4.43,6.88l7.42,20.18c.72,1.99,1.81,3.71,3.26,4.98,1.45,1.36,3.17,2.35,5.25,2.99,1.99.54,4.07.72,5.97.36s3.8-1.18,5.43-2.44l15.29-11.58c2.35-1.81,4.98-2.99,7.78-3.44,2.81-.45,5.61-.27,8.51.63s5.34,2.44,7.33,4.43c1.9,1.99,3.44,4.43,4.34,7.33l4.8,15.38c.63,2.17,1.72,3.89,3.08,5.34,1.45,1.45,3.26,2.53,5.34,3.17s4.16.81,6.15.45c1.99-.36,3.89-1.18,5.61-2.53l14.12-10.77c2.35-1.81,4.98-2.99,7.78-3.44,2.71-.54,5.61-.36,8.42.54,2.9.9,5.34,2.44,7.33,4.34,1.99,1.99,3.44,4.43,4.43,7.33l5.61,17.47c.36,1.27-.36,2.71-1.63,3.17-1.36.36-2.71-.36-3.17-1.63l-5.61-17.47c-.63-2.08-1.72-3.89-3.17-5.34-1.36-1.36-3.17-2.44-5.25-3.08s-4.16-.81-6.15-.45c-1.99.36-3.89,1.18-5.61,2.53l-14.12,10.77c-2.35,1.81-4.98,2.99-7.78,3.53-2.71.45-5.61.27-8.51-.63s-5.34-2.44-7.33-4.43c-1.99-1.99-3.44-4.52-4.34-7.33l-4.8-15.47c-.63-2.08-1.72-3.89-3.17-5.25-1.36-1.45-3.17-2.53-5.25-3.17-2.08-.72-4.16-.81-6.15-.54-1.99.36-3.89,1.18-5.61,2.53l-15.2,11.58c-2.35,1.72-4.89,2.9-7.6,3.35s-5.52.36-8.33-.45c-2.81-.81-5.25-2.26-7.24-4.07-1.99-1.9-3.53-4.25-4.52-6.97l-7.42-20.18c-.72-1.99-1.81-3.62-3.17-4.98-1.36-1.27-3.08-2.26-5.07-2.9s-3.98-.81-5.88-.54c-1.9.27-3.71,1.09-5.43,2.26l-19.46,13.66c-2.26,1.63-4.8,2.62-7.51,3.08-2.62.36-5.34.18-8.05-.63-2.71-.9-5.07-2.26-7.06-4.07-1.9-1.81-3.44-4.07-4.43-6.79l-7.51-20.18c-.81-1.99-1.9-3.71-3.35-5.07-1.45-1.36-3.26-2.26-5.34-2.9-2.08-.54-4.16-.63-6.06-.27-1.99.45-3.8,1.36-5.52,2.62l-13.03,10.5c-2.35,1.9-5.07,3.08-7.87,3.62-2.81.54-5.7.36-8.6-.54-2.9-.9-5.34-2.35-7.33-4.34l-.18-.09c-1.99-2.08-3.44-4.62-4.34-7.51l-3.44-11.49c-.63-2.17-1.81-4.07-3.35-5.61-1.54-1.45-3.44-2.53-5.7-3.17-2.26-.54-4.43-.63-6.52-.09s-3.98,1.63-5.7,3.17l-11.95,11.31h0Z" style="fill:#fff"/><circle cx="13.3" cy="73.46" r="207.23" style="fill:#17fdfd"/><path d="m275.82-91.06c33.48,0,63.8,13.57,85.7,35.47,21.99,21.9,35.56,52.21,35.56,85.7s-13.57,63.8-35.56,85.7c-21.9,21.99-52.21,35.56-85.7,35.56s-63.8-13.57-85.7-35.56c-21.99-21.9-35.56-52.21-35.56-85.7s13.57-63.8,35.56-85.7c21.9-21.9,52.21-35.47,85.7-35.47h0Zm71.58,49.59c-18.28-18.28-43.62-29.59-71.58-29.59s-53.3,11.31-71.58,29.59c-18.28,18.37-29.68,43.62-29.68,71.58s11.4,53.3,29.68,71.58c18.28,18.37,43.62,29.68,71.58,29.68s53.3-11.31,71.58-29.68c18.28-18.28,29.68-43.62,29.68-71.58s-11.4-53.21-29.68-71.58Z" style="fill:#fd4dfa"/><polygon points="-4.08 299.51 134.2 338.6 66.69 228.74 -4.08 299.51" style="fill:#8526fe"/><path d="m153.47,357.79c.54,1.27-.09,2.71-1.36,3.26-1.27.54-2.71-.09-3.26-1.36l-6.24-15.11c-1.27-2.99-1.63-5.97-1.36-8.96.36-2.99,1.45-5.79,3.35-8.42,1.9-2.53,4.25-4.52,6.88-5.79,2.71-1.27,5.79-1.81,8.96-1.63l11.95.9c2.17.09,4.25-.27,6.15-1.09,1.9-.81,3.53-2.08,4.89-3.89,1.36-1.72,2.26-3.62,2.62-5.7.36-1.99.18-4.16-.45-6.24l-5.16-15.93c-.9-2.81-1.18-5.61-.72-8.33.45-2.71,1.54-5.34,3.35-7.69,1.72-2.44,3.89-4.25,6.33-5.52,2.44-1.18,5.16-1.9,8.14-1.81h21.54c2.08,0,4.07-.36,5.79-1.27,1.72-.81,3.26-2.08,4.52-3.71s2.08-3.35,2.44-5.25c.45-1.9.36-3.89-.18-5.88l-5.79-22.99c-.72-2.71-.81-5.52-.27-8.14s1.72-5.07,3.53-7.33c1.72-2.26,3.89-3.98,6.33-5.16,2.35-1.18,5.07-1.72,7.96-1.72l21.45.27c2.17,0,4.16-.45,5.88-1.27,1.72-.9,3.26-2.17,4.62-3.89,1.27-1.72,2.08-3.53,2.44-5.43v-.09c.36-1.9.18-3.89-.36-5.97l-5.43-18.28c-.36-1.36.36-2.71,1.72-3.17,1.27-.36,2.71.36,3.08,1.72l5.43,18.37c.81,2.71.9,5.52.45,8.14v.09c-.45,2.71-1.63,5.34-3.35,7.6-1.81,2.35-3.98,4.16-6.43,5.34s-5.16,1.81-8.05,1.81l-21.54-.27c-2.08,0-3.98.45-5.79,1.27-1.72.81-3.26,2.08-4.52,3.71s-2.17,3.44-2.53,5.25c-.36,1.9-.36,3.89.18,5.88l5.88,22.99c.72,2.81.72,5.52.18,8.14-.54,2.62-1.72,5.07-3.44,7.33-1.72,2.26-3.89,3.98-6.24,5.16-2.44,1.18-5.07,1.81-7.96,1.72h-21.54c-2.17,0-4.16.45-5.88,1.27-1.81.9-3.35,2.26-4.62,3.98s-2.08,3.62-2.35,5.61c-.36,1.9-.18,3.98.45,6.06l5.16,15.84c1,2.9,1.18,5.88.63,8.69-.45,2.81-1.72,5.52-3.53,7.87-1.9,2.44-4.25,4.25-6.88,5.43-2.62,1.09-5.52,1.63-8.51,1.45l-11.95-.9c-2.35-.18-4.52.27-6.43,1.18-1.99.9-3.62,2.26-4.98,4.16-1.36,1.9-2.17,3.98-2.44,6.06-.27,2.17.09,4.34,1,6.52l6.24,15.11h0Z" style="fill:#fff"/><circle cx="102.25" cy="403.4" r="31.04" style="fill:#fd4dfa"/><polygon points="351.74 138.25 372.83 157.62 394 176.98 366.67 185.58 339.35 194.17 345.59 166.21 351.74 138.25" style="fill:#8526fe"/><path d="m78.72,686.19c43.62,0,83.16,17.65,111.76,46.24,28.51,28.6,46.24,68.05,46.24,111.67s-17.74,83.07-46.24,111.67c-28.6,28.6-68.14,46.24-111.76,46.24s-83.07-17.65-111.67-46.24-46.24-68.05-46.24-111.67,17.65-83.07,46.24-111.67c28.6-28.6,68.05-46.24,111.67-46.24Zm97.55,60.36c-24.89-24.98-59.45-40.45-97.55-40.45s-72.58,15.47-97.55,40.45c-24.89,24.98-40.36,59.45-40.36,97.55s15.47,72.58,40.36,97.55c24.98,24.98,59.45,40.36,97.55,40.36s72.67-15.38,97.55-40.36c24.98-24.98,40.45-59.45,40.45-97.55s-15.47-72.58-40.45-97.55Z" style="fill:#fd4dfa"/><circle cx="100.53" cy="794.87" r="31.22" style="fill:#fff"/><circle cx="227.4" cy="769.89" r="76.11" style="fill:#15fdfd"/><polygon points="333.28 792.07 342.6 823.92 351.92 855.77 319.62 847.9 287.4 840.03 310.39 816.05 333.28 792.07" style="fill:#8526fe"/><polygon points="142.16 668.63 5.51 567.64 157.09 551.26 142.16 668.63" style="fill:#2709ff"/><polygon points="1207.99 71.56 1236.86 96.08 1265.64 120.6 1229.98 133.27 1194.42 146.03 1201.21 108.84 1207.99 71.56" style="fill:#13fffa"/><path d="m-141.36,413.62c-1,.9-2.53.9-3.53-.09-.9-1-.9-2.62.18-3.53l11.85-11.22c2.35-2.17,4.98-3.71,7.87-4.43,2.9-.72,5.97-.72,9.05.09,3.08.81,5.79,2.35,7.87,4.43,2.17,2.08,3.8,4.71,4.71,7.78l3.44,11.4c.63,2.17,1.72,3.98,3.08,5.43l.18.18c1.36,1.36,3.17,2.44,5.25,3.08s4.25.81,6.24.45c1.99-.45,3.98-1.36,5.7-2.71l13.03-10.41c2.35-1.9,4.89-3.08,7.6-3.62,2.71-.54,5.52-.45,8.33.36,2.9.72,5.34,2.08,7.42,3.98,1.99,1.81,3.62,4.25,4.62,6.97l7.6,20.18c.72,1.99,1.81,3.62,3.17,4.89,1.36,1.36,3.08,2.35,5.07,2.9,1.99.63,3.98.81,5.88.54,1.9-.36,3.71-1.09,5.43-2.26l19.37-13.66c2.35-1.63,4.89-2.62,7.51-3.08,2.71-.36,5.43-.18,8.14.63,2.71.9,5.16,2.26,7.06,4.16,1.9,1.81,3.44,4.16,4.43,6.79l7.42,20.18c.72,1.99,1.81,3.71,3.26,5.07,1.36,1.36,3.17,2.35,5.25,2.9,1.99.63,4.07.72,5.97.36s3.71-1.18,5.43-2.44l15.29-11.58c2.35-1.81,4.98-2.9,7.78-3.44,2.71-.45,5.61-.27,8.51.72,2.81.9,5.34,2.35,7.24,4.34,1.99,1.99,3.53,4.52,4.34,7.33l4.8,15.47c.72,2.08,1.72,3.89,3.17,5.25,1.45,1.45,3.17,2.53,5.34,3.26,1.99.63,4.16.81,6.15.45,1.99-.36,3.89-1.27,5.61-2.53l14.12-10.77c2.35-1.9,4.98-3.08,7.69-3.53,2.81-.45,5.61-.27,8.51.63s5.34,2.35,7.33,4.34,3.44,4.43,4.34,7.24l5.61,17.47c.45,1.36-.27,2.71-1.54,3.17-1.36.45-2.71-.27-3.17-1.63l-5.61-17.47c-.63-2.08-1.72-3.89-3.17-5.25-1.45-1.45-3.17-2.44-5.25-3.17-2.08-.63-4.16-.72-6.15-.45-1.99.36-3.89,1.27-5.61,2.53l-14.12,10.86c-2.35,1.81-4.98,2.99-7.78,3.44-2.81.45-5.61.27-8.51-.63s-5.34-2.44-7.33-4.43-3.44-4.43-4.34-7.33l-4.8-15.38c-.63-2.08-1.72-3.89-3.17-5.34-1.36-1.45-3.17-2.53-5.25-3.17s-4.16-.81-6.15-.45c-1.99.27-3.89,1.18-5.61,2.44l-15.29,11.58c-2.26,1.72-4.89,2.9-7.51,3.35-2.71.54-5.52.36-8.33-.45-2.81-.81-5.25-2.17-7.24-4.07s-3.53-4.25-4.52-6.97l-7.42-20.18c-.72-1.9-1.81-3.62-3.17-4.89-1.36-1.36-3.08-2.35-5.07-2.99s-3.98-.81-5.88-.45c-1.9.27-3.71,1-5.43,2.17l-19.46,13.66c-2.26,1.63-4.8,2.62-7.51,3.08-2.62.45-5.34.18-8.05-.63s-5.07-2.17-7.06-4.07c-1.9-1.81-3.44-4.07-4.43-6.79l-7.6-20.18c-.72-1.99-1.81-3.71-3.35-5.07-1.45-1.27-3.17-2.26-5.25-2.81-2.08-.63-4.16-.72-6.06-.27-1.99.36-3.8,1.27-5.52,2.62l-13.03,10.41c-2.35,1.9-5.07,3.17-7.87,3.71-2.81.45-5.7.36-8.69-.63-2.81-.81-5.25-2.35-7.24-4.25l-.18-.18c-1.99-1.99-3.53-4.52-4.34-7.51l-3.44-11.4c-.72-2.26-1.81-4.16-3.35-5.61-1.54-1.54-3.44-2.62-5.7-3.17-2.26-.63-4.43-.63-6.52-.09-2.08.45-4.07,1.54-5.7,3.17l-11.95,11.22h0Z" style="fill:#fff"/><polygon points="490.56 -44.18 552.37 12.55 614.17 69.29 534.18 94.45 454.18 119.61 472.37 37.71 490.56 -44.18" style="fill:#2709ff"/><circle cx="485.31" cy="917.85" r="61.35" style="fill:#15fdfd"/><path d="M1123.74 498.5c134.02 122.89 267.95 245.87 401.97 368.85-174.83 55.02-349.67 110.04-524.5 164.97 39.82-178.91 79.63-357.81 119.36-536.72l3.17 2.9h0Zm196.01 186.6-196.19-179.99-115.65 519.89 508.12-159.81-196.28-180.08h0ZM1376.22-319.1c134.02 122.98 268.04 245.87 402.06 368.85-174.92 54.93-349.76 110.04-524.59 165.06 39.82-179 79.63-357.9 119.36-536.81l3.17 2.9h0Zm196.01 186.6-196.19-179.99-115.56 519.89 508.03-159.81-196.28-180.08h0ZM-176.11 974.14l440.52-321.98c19.64 182.25 39.27 364.51 59 546.67-167.68-74.02-335.37-148.14-502.96-222.16l3.44-2.53Zm221.44-155.74-215.01 157.19 487.22 215.19-57.19-529.48-215.01 157.1h0ZM-23.35-88.71C110.67 34.27 244.69 157.16 378.62 280.14c-174.83 54.93-349.67 110.04-524.5 165.06C-106.15 266.21-66.34 87.3-26.52-91.6l3.17 2.9h0ZM172.66 97.89-23.53-82.1l-115.56 519.89 508.03-159.81L172.66 97.89Z" style="fill:#fff"/><path d="M1149.62 384.03c-1 1-2.53.9-3.53-.09-.9-1-.9-2.62.09-3.53l11.95-11.22c2.26-2.17 4.98-3.71 7.87-4.43 2.9-.72 5.97-.72 9.05.18 3.08.81 5.7 2.26 7.87 4.34 2.17 2.08 3.71 4.71 4.62 7.78l3.44 11.49c.63 2.08 1.72 3.89 3.17 5.34l.09.18c1.45 1.36 3.26 2.44 5.34 3.08s4.25.81 6.24.45c1.99-.45 3.89-1.27 5.7-2.71l13.03-10.41c2.26-1.81 4.89-3.08 7.51-3.62 2.71-.54 5.61-.45 8.42.36 2.81.72 5.34 2.08 7.33 3.98 2.08 1.9 3.62 4.25 4.71 6.97l7.51 20.18c.72 1.99 1.81 3.62 3.26 4.89 1.36 1.36 3.08 2.35 5.07 2.99 1.99.54 3.98.72 5.88.45 1.81-.27 3.62-1.09 5.34-2.26l19.46-13.66c2.35-1.63 4.89-2.62 7.51-3.08 2.71-.36 5.43-.18 8.14.72 2.71.81 5.07 2.17 7.06 4.07 1.9 1.81 3.44 4.16 4.43 6.79l7.33 20.18c.81 2.08 1.9 3.71 3.26 5.07 1.45 1.36 3.26 2.35 5.25 2.9 2.08.63 4.07.72 6.06.36 1.9-.36 3.71-1.18 5.43-2.44l15.29-11.58c2.35-1.81 4.98-2.9 7.78-3.44 2.71-.45 5.61-.18 8.51.72 2.81.9 5.25 2.35 7.24 4.34s3.44 4.52 4.34 7.33l4.8 15.47c.63 2.08 1.72 3.89 3.17 5.34 1.45 1.36 3.17 2.44 5.25 3.17 2.08.63 4.16.81 6.15.45 1.99-.36 3.89-1.18 5.7-2.53l14.03-10.77c2.44-1.81 5.07-2.99 7.78-3.53 2.81-.45 5.61-.27 8.51.63 2.81.9 5.34 2.35 7.33 4.34 1.99 1.99 3.44 4.43 4.34 7.24l5.61 17.47c.45 1.36-.27 2.71-1.63 3.17-1.27.45-2.71-.27-3.08-1.63l-5.61-17.47c-.72-2.08-1.81-3.8-3.17-5.25-1.45-1.45-3.26-2.44-5.34-3.17-2.08-.63-4.16-.72-6.06-.36-1.99.27-3.89 1.18-5.61 2.44l-14.12 10.86c-2.35 1.81-5.07 2.99-7.78 3.44-2.81.45-5.7.27-8.51-.63-2.9-.9-5.34-2.44-7.33-4.43-1.99-1.99-3.53-4.43-4.34-7.33l-4.8-15.38c-.72-2.08-1.72-3.89-3.17-5.34-1.45-1.45-3.17-2.53-5.25-3.17s-4.16-.81-6.15-.45c-1.99.27-3.89 1.18-5.61 2.44l-15.29 11.58c-2.26 1.72-4.89 2.9-7.6 3.35-2.62.54-5.43.36-8.23-.45-2.81-.81-5.25-2.17-7.24-4.07s-3.53-4.25-4.52-6.97l-7.42-20.18c-.72-1.9-1.81-3.62-3.17-4.89-1.45-1.36-3.08-2.35-5.07-2.99-2.08-.63-3.98-.81-5.88-.45-1.9.27-3.71 1-5.43 2.26l-19.46 13.57c-2.35 1.63-4.89 2.71-7.51 3.08-2.62.45-5.34.18-8.05-.63s-5.16-2.17-7.06-3.98c-1.9-1.9-3.44-4.16-4.43-6.88l-7.6-20.18c-.72-1.99-1.9-3.71-3.35-4.98-1.45-1.36-3.26-2.35-5.34-2.9-2.08-.63-4.07-.63-6.06-.27-1.9.36-3.71 1.27-5.43 2.62l-13.03 10.41c-2.44 1.9-5.07 3.17-7.87 3.71-2.81.54-5.79.36-8.69-.54-2.81-.9-5.25-2.44-7.24-4.34l-.18-.18c-1.99-1.99-3.53-4.52-4.34-7.51l-3.44-11.4c-.72-2.26-1.81-4.16-3.35-5.61-1.54-1.54-3.53-2.62-5.7-3.17-2.26-.63-4.52-.63-6.61-.09-1.99.45-3.98 1.54-5.61 3.17l-11.95 11.22h0ZM-155.65 447.56c-1 .9-2.62.9-3.53-.09-1-1-.9-2.62.09-3.53l11.85-11.22c2.35-2.17 5.07-3.71 7.96-4.43 2.9-.72 5.97-.72 9.05.09 3.08.9 5.7 2.35 7.87 4.43 2.08 2.08 3.71 4.71 4.62 7.78l3.44 11.4c.63 2.17 1.72 3.98 3.17 5.43l.09.18c1.45 1.36 3.17 2.44 5.25 3.08 2.17.63 4.25.81 6.24.45 2.08-.45 3.98-1.36 5.7-2.71l13.03-10.41c2.35-1.9 4.89-3.08 7.6-3.62 2.71-.54 5.52-.45 8.42.36 2.81.72 5.25 2.08 7.33 3.98 2.08 1.9 3.62 4.25 4.62 6.97l7.6 20.18c.72 1.99 1.81 3.62 3.17 4.89 1.45 1.36 3.17 2.35 5.16 2.9 1.99.63 3.89.81 5.79.54 1.9-.36 3.71-1.09 5.43-2.26l19.46-13.66c2.26-1.63 4.89-2.62 7.51-3.08 2.62-.36 5.34-.18 8.14.63 2.71.9 5.07 2.26 6.97 4.16 1.99 1.81 3.44 4.16 4.43 6.79l7.42 20.18c.72 1.99 1.81 3.71 3.26 5.07 1.45 1.36 3.17 2.35 5.25 2.9 2.08.63 4.07.72 5.97.36s3.8-1.18 5.52-2.44l15.2-11.58c2.44-1.81 5.07-2.9 7.78-3.44 2.81-.45 5.7-.27 8.51.72 2.9.9 5.34 2.35 7.33 4.34s3.44 4.52 4.34 7.33l4.8 15.47c.63 2.08 1.72 3.89 3.08 5.25 1.45 1.45 3.26 2.53 5.34 3.26 2.08.63 4.16.81 6.15.45 1.99-.36 3.89-1.27 5.61-2.53l14.12-10.77c2.35-1.9 4.98-2.99 7.78-3.53 2.71-.45 5.61-.27 8.42.63 2.9.9 5.34 2.35 7.33 4.34s3.53 4.43 4.43 7.24l5.61 17.47c.45 1.36-.27 2.71-1.63 3.17-1.27.45-2.71-.27-3.17-1.63l-5.61-17.47c-.63-2.08-1.72-3.89-3.17-5.25-1.36-1.45-3.17-2.44-5.25-3.17-2.08-.63-4.16-.72-6.15-.45-1.99.36-3.89 1.27-5.61 2.53l-14.03 10.86c-2.44 1.81-5.07 2.99-7.87 3.44-2.71.45-5.61.27-8.51-.63-2.81-.9-5.34-2.44-7.33-4.43-1.99-1.99-3.44-4.43-4.34-7.33l-4.8-15.38c-.63-2.08-1.72-3.89-3.08-5.34-1.45-1.45-3.26-2.53-5.34-3.17s-4.16-.81-6.06-.45c-1.99.27-3.89 1.18-5.7 2.44l-15.2 11.58c-2.35 1.72-4.89 2.9-7.6 3.35-2.71.54-5.52.36-8.33-.45-2.71-.81-5.16-2.17-7.15-4.07-2.08-1.9-3.62-4.25-4.62-6.97l-7.33-20.18c-.72-1.9-1.81-3.62-3.26-4.89-1.36-1.36-3.08-2.35-5.07-2.99s-3.98-.81-5.88-.45c-1.81.27-3.71 1-5.43 2.17l-19.37 13.66c-2.35 1.63-4.89 2.62-7.51 3.08-2.62.45-5.43.18-8.14-.63s-5.07-2.17-6.97-4.07c-1.99-1.81-3.44-4.07-4.43-6.79l-7.6-20.18c-.72-1.99-1.9-3.71-3.35-5.07-1.45-1.27-3.26-2.26-5.34-2.81-2.08-.63-4.16-.72-6.06-.27-1.9.36-3.8 1.27-5.43 2.62l-13.03 10.41c-2.44 1.9-5.07 3.17-7.87 3.71-2.81.54-5.79.36-8.69-.54s-5.34-2.44-7.33-4.34l-.09-.18c-2.08-1.99-3.53-4.52-4.43-7.51l-3.44-11.4c-.63-2.26-1.81-4.16-3.35-5.61-1.54-1.54-3.44-2.62-5.7-3.17-2.17-.63-4.43-.63-6.52-.09-2.08.45-3.98 1.54-5.7 3.17l-11.85 11.22h0Z" style="fill:#efd20a"/></g></svg>